<svg t="1547454467738" class="icon" viewBox="0 0 1024 1024" version="1.1" xmlns="http://www.w3.org/2000/svg" p-id="1487" height="200" width="200"><path d="M929.476923 728.615385c-3.938462 0-3.938462-3.938462 0 0-3.938462-7.876923-7.876923-11.815385-11.815385-15.753847-59.076923-78.769231-106.338462-173.292308-106.338461-295.384615 0-149.661538-90.584615-271.753846-228.430769-303.261538v-3.938462C582.892308 70.892308 551.384615 39.384615 512 39.384615S437.169231 70.892308 437.169231 110.276923v3.938462c-137.846154 31.507692-224.492308 153.6-228.430769 303.261538 0 129.969231-59.076923 228.430769-118.153847 311.138462v3.938461c-7.876923 11.815385-11.815385 27.569231-11.815384 39.384616v3.938461C82.707692 866.461538 271.753846 905.846154 508.061538 905.846154s429.292308-39.384615 429.292308-133.907692c3.938462-15.753846 0-31.507692-7.876923-43.323077" fill="#8a8a8a" p-id="1488"></path><path d="M366.276923 957.046154C397.784615 996.430769 452.923077 1024 512 1024 575.015385 1024 626.215385 996.430769 657.723077 953.107692c-47.261538 3.938462-102.4 7.876923-157.538462 7.876923C456.861538 960.984615 409.6 957.046154 366.276923 957.046154" fill="#8a8a8a" p-id="1489"></path></svg>