<svg t="1549005856678" class="icon" viewBox="0 0 1024 1024" version="1.1" xmlns="http://www.w3.org/2000/svg" p-id="4346" height="200" width="200"><path d="M887.008 1024 136.992 1024c-25.152 0-45.536-20.384-45.536-45.536L91.456 137.408c0-25.152 20.384-45.536 45.536-45.536L296 91.872 296 0l45.952 0.064 0 91.808 341.152 0L683.104 0l45.952 0.064 0 91.808 157.984 0c25.152 0 45.536 20.384 45.536 45.536l0 841.056C932.544 1003.616 912.16 1024 887.008 1024zM888.416 158.752c0-12.608-10.176-22.784-22.752-22.784l-136.64 0 0 92.512-45.952-0.608L683.072 136 341.952 136l0 92.512L296 227.904 296 136 158.336 136c-12.576 0-22.752 10.176-22.752 22.784L135.584 957.12c0 12.608 10.176 22.784 22.752 22.784l707.328 0c12.576 0 22.752-10.176 22.752-22.784L888.416 158.752zM364.64 706.976l432.448 0 0.288 45.216-432.64 0L364.64 706.976zM364.64 524.8l432.448 0 0.288 45.216-432.64 0L364.64 524.8zM364.64 342.656l432.448 0 0.288 45.216-432.64 0L364.64 342.656zM227.904 706.976l68.032 0 0.48 45.216L228.096 752.192 227.904 706.976zM227.904 524.8l68.032 0 0.48 45.216L228.096 570.016 227.904 524.8zM227.904 342.656l68.032 0 0.48 45.216L228.096 387.872 227.904 342.656z" p-id="4347" fill="#ffffff"></path></svg>