<?xml version="1.0" standalone="no"?><!DOCTYPE svg PUBLIC "-//W3C//DTD SVG 1.1//EN" "http://www.w3.org/Graphics/SVG/1.1/DTD/svg11.dtd"><svg t="1542017614061" class="icon" style="" viewBox="0 0 1024 1024" version="1.1" xmlns="http://www.w3.org/2000/svg" p-id="9784" xmlns:xlink="http://www.w3.org/1999/xlink" width="48" height="48"><defs><style type="text/css"></style></defs><path d="M90.926873 918.628958h714.362592a20.919887 20.919887 0 0 1 0 41.846986H90.934085a20.919887 20.919887 0 1 1 0-41.846986z m359.272564-700.863099c-6.591099 24.186592-35.169352 35.176563-35.169352 35.176564-10.997183 4.398873-17.595493 17.595493-13.19662 28.578253 4.398873 8.797746 10.997183 15.396056 19.787718 15.396056 2.199437 0 4.398873 0 6.59831-2.199436 2.199437 0 50.565408-19.787718 63.754817-63.754817 8.797746-30.784901-2.199437-65.954254-30.77769-101.130817-19.787718-24.186592-28.578254-43.97431-24.186592-54.964282 4.398873-13.19662 24.186592-17.588282 30.77769-19.787718 10.997183-2.199437 19.787718-13.189408 17.595493-24.17938-2.206648-10.997183-13.19662-19.787718-24.186591-17.595493-4.398873 0-50.565408 8.797746-65.954254 46.173746-10.997183 28.578254 0 61.55538 30.77769 98.93138 13.19662 13.19662 28.578254 37.376 24.179381 59.355944z m-189.353465 0c-6.59831 24.186592-35.176563 35.176563-35.176564 35.176564-10.989972 4.398873-17.588282 17.595493-13.196619 28.578253 4.398873 8.797746 10.997183 15.396056 19.794929 15.396056 2.199437 0 4.398873 0 6.591099-2.199436 2.199437 0 50.565408-19.787718 63.754817-63.754817 8.797746-30.784901-2.192225-65.954254-30.77769-101.130817-19.787718-24.186592-28.578254-43.97431-24.179381-54.964282 4.398873-13.19662 24.17938-17.588282 30.777691-19.787718 10.989972-2.199437 19.787718-13.189408 17.588281-24.17938-2.199437-10.997183-13.19662-19.787718-24.186591-17.595493-4.398873 0-50.565408 8.797746-65.954254 46.173746-10.989972 28.578254 0 61.55538 30.77769 98.93138 13.19662 13.19662 28.585465 37.376 24.186592 59.355944z m379.312676 0c-6.591099 24.186592-35.176563 35.176563-35.176563 35.176564-10.989972 4.398873-17.58107 17.595493-13.189409 28.578253 2.199437 8.797746 10.997183 15.396056 19.787718 15.396056 2.199437 0 4.398873 0 6.59831-2.199436 2.199437 0 50.565408-19.787718 63.747606-63.754817 8.797746-30.784901-2.192225-65.954254-30.770479-101.130817-19.787718-24.186592-28.585465-43.97431-24.186592-54.964282 4.398873-13.19662 24.186592-17.588282 30.777691-19.787718 10.997183-2.199437 19.787718-13.189408 17.595493-24.17938-2.206648-10.997183-13.19662-19.787718-24.186592-17.595493-4.398873 0-50.565408 8.797746-65.954254 46.173746-10.997183 28.578254 0 61.55538 30.777691 98.93138 13.189408 13.19662 28.578254 37.376 24.17938 59.355944z m175.457352 120.918535h-659.542535c-13.189408 0-21.979944 8.797746-21.979944 21.987155v351.751212c0 61.562592 48.365972 109.928563 109.921352 109.928563h373.738366c61.562592 0 109.928563-48.365972 109.928564-109.928563v-329.771268h87.934197c48.365972 0 87.941408 39.575437 87.941408 87.941408s-39.575437 87.941408-87.941408 87.941409h-4.398873c-13.189408 0-21.979944 10.989972-21.979944 21.979944 0 10.997183 10.989972 21.994366 21.987155 21.994366h6.591099c72.545352 0 131.908507-59.363155 131.908507-131.915719 0-72.545352-61.55538-131.908507-134.107944-131.908507zM683.707493 712.422761c0 37.376-28.578254 65.961465-65.954254 65.961464H244.014873c-37.376 0-65.954254-28.585465-65.954253-65.961464v-329.771268h505.654084v329.771268z" p-id="9785" fill="#D2D2D2"></path></svg>