<svg t="1558581871975" class="icon" viewBox="0 0 1024 1024" version="1.1" xmlns="http://www.w3.org/2000/svg" p-id="1968" height="200" width="200"><path d="M511.751337 69.14173c-245.372453 0-444.281689 198.892863-444.281689 444.283736 0 245.350964 198.909236 444.281689 444.281689 444.281689 245.370407 0 444.283736-198.930725 444.283735-444.281689 0-245.390873-198.914352-444.283736-444.283735-444.283736z m275.199782 295.573809C683.173544 470.833415 467.793172 689.718611 457.43629 698.504718l-0.686638 0.579191-0.418532 0.432859c-5.1503 5.242398-11.731182 8.133238-18.537192 8.133237-5.858428 0-11.255345-2.242064-15.22168-6.328125L235.068783 509.119393c-9.111518-9.363252-8.308223-25.453718 1.762134-35.794227 5.15337-5.27719 11.724019-8.1711 18.521842-8.1711 5.866614 0 11.271718 2.242064 15.238052 6.364964l156.772557 160.638607 4.652973 4.7727 5.244444 5.385661 5.306866-5.349845 4.700046-4.736884L751.960187 326.533938c4.756327-4.736884 10.982122-7.377014 17.527189-7.377014 6.797823 0 13.195533 2.784416 18.131962 7.953135 9.797134 10.524704 9.535167 27.337625-0.668219 37.60548z" p-id="1969" fill="#C73C27"></path></svg>