<svg t="1548309933778" class="icon" viewBox="0 0 1170 1024" version="1.1" xmlns="http://www.w3.org/2000/svg" p-id="3080" height="200" width="200"><path d="M585.143 0h512a73.143 73.143 0 1 1 0 146.286h-512a73.143 73.143 0 1 1 0-146.286z m0 292.571h512a73.143 73.143 0 1 1 0 146.286h-512a73.143 73.143 0 1 1 0-146.286z m0 292.572h512a73.143 73.143 0 1 1 0 146.286h-512a73.143 73.143 0 1 1 0-146.286z m0 292.571h512a73.143 73.143 0 1 1 0 146.286h-512a73.143 73.143 0 1 1 0-146.286zM73.143 0h292.571a73.143 73.143 0 0 1 73.143 73.143v292.571a73.143 73.143 0 0 1-73.143 73.143H73.143A73.143 73.143 0 0 1 0 365.714V73.143A73.143 73.143 0 0 1 73.143 0z m0 585.143h292.571a73.143 73.143 0 0 1 73.143 73.143v292.571A73.143 73.143 0 0 1 365.714 1024H73.143A73.143 73.143 0 0 1 0 950.857V658.286a73.143 73.143 0 0 1 73.143-73.143z m73.143 146.286v146.285H292.57V731.43H146.286z m0-585.143V292.57H292.57V146.286H146.286z" p-id="3081" fill="#C73C27"></path></svg>