<svg t="1548310015946" class="icon" viewBox="0 0 1146 1024" version="1.1" xmlns="http://www.w3.org/2000/svg" p-id="3912" height="200" width="200"><path d="M40.96 0h1064.96a40.96 40.96 0 0 1 40.96 40.96v696.32a40.96 40.96 0 0 1-40.96 40.96h-330.79296v118.12864l84.3776 47.104v42.35264H287.45728v-42.31168l80.73216-47.14496V778.24H40.96a40.96 40.96 0 0 1-40.96-40.96V40.96a40.96 40.96 0 0 1 40.96-40.96z m40.96 81.92v573.44h983.04V81.92H81.92z m151.1424 419.30752L163.84 245.76h53.8624l33.91488 138.4448c5.12 24.576 9.29792 48.29184 13.9264 72.41728h1.88416c5.57056-24.1664 10.6496-48.29184 16.71168-72.45824L319.8976 245.76h49.72544l36.70016 138.4448c6.02112 24.576 11.14112 48.29184 17.2032 72.41728h1.8432c5.07904-24.1664 9.25696-47.84128 14.82752-72.45824L473.21088 245.76h50.13504l-65.9456 255.46752H393.29792l-32.52224-126.32064c-6.02112-24.1664-10.6496-47.39072-16.26112-73.89184h-2.29376a1038.49984 1038.49984 0 0 1-16.26112 74.3424l-31.1296 125.87008H233.0624z m423.936 12.53376c-69.2224 0-124.5184-49.23392-124.5184-133.28384C532.48 297.32864 589.16864 245.76 649.05216 245.76c67.82976 0 104.0384 48.7424 104.0384 121.2416 0 10.24-0.90112 20.8896-2.29376 26.95168H584.9088c4.21888 48.7424 34.85696 78.0288 78.97088 78.0288 22.77376 0 42.27072-6.9632 60.86656-19.0464l18.55488 33.91488a154.99264 154.99264 0 0 1-86.38464 26.91072z m240.14848-14.62272c-23.22432 0-48.7424-11.63264-70.61504-32.52224h-1.39264l-5.07904 26.46016H778.24V163.84h52.96128v57.05728l-1.39264 43.66336c21.83168-19.0464 49.23392-33.46432 76.1856-33.46432 64.55296 0 101.25312 51.56864 101.25312 130.08896 0 87.77728-52.51072 137.95328-110.10048 137.95328z m4.3008-49.3568c44.8512 0 63.8976-27.0336 63.8976-86.95808 0-53.4528-21.13536-82.28864-63.8976-82.28864-38.5024 0-52.46976 22.1184-73.85088 43.008v88.8832c19.49696 17.2032 43.70432 37.35552 73.85088 37.35552zM581.87776 356.352h135.20896c0-44.11392-30.43328-73.07264-67.584-73.07264-32.07168 0-62.50496 28.01664-67.584 73.07264z" fill="#C73C27" p-id="3913"></path></svg>