<svg t="1548310227001" class="icon" viewBox="0 0 1024 1024" version="1.1" xmlns="http://www.w3.org/2000/svg" p-id="7036" height="200" width="200"><path d="M964.011637 284.944477c0-21.195856-11.497752-40.892006-29.794176-51.489935L541.994136 7.898636c-18.396404-10.597928-41.191947-10.497948-59.48837 0.09998L90.982304 234.754288c-18.296423 10.597928-29.694195 30.394058-29.694195 51.589915l0.699863 452.411559c0 21.195856 11.497752 40.892006 29.794176 51.489934L484.005473 1015.901583c9.198202 5.298964 19.396208 7.898456 29.694195 7.898456s20.595974-2.699472 29.794175-7.998436l391.523462-226.855653c18.296423-10.597928 29.694195-30.394058 29.694195-51.589914l-0.699863-452.411559z m-35.693022 0.09998l0.399921 298.541639-387.124321-250.55102 238.653346-146.971269 136.173379 78.284696c7.298573 4.29916 11.897674 12.197616 11.897675 20.695954z m-429.915957 366.428368L267.347827 501.902064 508.000782 353.73103l231.154812 149.57076-240.752936 148.171035zM108.878805 265.648249L500.402267 38.792597c3.699277-2.09959 7.798475-3.199375 11.897674-3.199375 4.099199 0 8.198397 1.099785 11.897675 3.199375l220.856825 127.075158-510.900125 314.538511-136.973224-88.582683-0.199961-105.47938c0-8.498339 4.49912-16.496775 11.897674-20.695954zM97.680995 738.755762l-0.499903-304.440486 367.628133 237.853503-244.852134 150.670546-110.378422-63.487589c-7.298573-4.199179-11.897674-12.097635-11.897674-20.595974z m819.439809 19.396208L525.597342 985.007623c-7.298573 4.29916-16.496775 4.29916-23.795348 0L255.150211 843.035376l517.098913-318.337768L928.818517 626.077789l0.199961 111.478207c0 8.398358-4.49912 16.396795-11.897674 20.595974z" fill="#C73C27" p-id="7037"></path></svg>