<svg t="1550037808634" class="icon" viewBox="0 0 1024 1024" version="1.1" xmlns="http://www.w3.org/2000/svg" p-id="2364" height="200" width="200"><path d="M98.741 824.63h619.505v112.637H98.741zM897.415 251.591l-558.57 88.626-19.333-121.872 60.971-9.652c33.679-5.366 56.582-36.924 51.27-70.603-5.37-33.679-36.928-56.582-70.607-51.286l-60.97 9.705-121.819 19.353-60.971 9.632c-33.679 5.37-56.582 36.923-51.212 70.603 5.292 33.679 36.866 56.618 70.545 51.269l60.976-9.631 27.408 172.598 3.191 20.292L255.7 603.282l-60.918 9.669c-33.659 5.366-56.619 36.908-51.249 70.545 5.295 33.737 36.907 56.619 70.606 51.307l60.918-9.649L396.95 705.76l60.918-9.628c33.659-5.448 56.562-36.964 51.25-70.644-5.37-33.658-36.929-56.619-70.607-51.232l-60.897 9.706-19.337-121.889 558.417-88.63c28.215-4.447 47.268-30.842 42.762-58.85l-3.245-20.371c-4.355-27.988-30.733-47.099-58.796-42.631z m0 0" p-id="2365" fill="#ffffff"></path></svg>