<?xml version="1.0" standalone="no"?><!DOCTYPE svg PUBLIC "-//W3C//DTD SVG 1.1//EN" "http://www.w3.org/Graphics/SVG/1.1/DTD/svg11.dtd"><svg t="1546483025608" class="icon" style="" viewBox="0 0 1024 1024" version="1.1" xmlns="http://www.w3.org/2000/svg" p-id="2239" xmlns:xlink="http://www.w3.org/1999/xlink" width="200" height="200"><defs><style type="text/css"></style></defs><path d="M960.981223 511.145539 644.80519 338.492294l0 97.641831C365.826338 487.281015 345.484034 643.043568 345.484034 643.043568c186.566116-92.991927 307.748083-55.794747 307.748083-55.794747l0 113.915469L960.981223 511.145539zM531.469935 625.454982l0 76.979232c0 9.099239-7.377014 16.47523-16.47523 16.47523L175.973362 718.909443c-9.099239 0-16.47523-7.375991-16.47523-16.47523L159.498132 321.565786c0-9.099239 7.375991-16.47523 16.47523-16.47523l339.022367 0c9.098215 0 16.47523 7.375991 16.47523 16.47523l0 112.316042c27.822672-10.607592 59.782571-20.024056 96.480378-27.587312L627.951337 238.612493c0-9.100262-7.377014-16.476253-16.476253-16.476253L79.492984 222.13624c-9.098215 0-16.47523 7.375991-16.47523 16.476253l0 546.773991c0 9.100262 7.377014 16.476253 16.47523 16.476253l531.9821 0c9.099239 0 16.476253-7.375991 16.476253-16.476253L627.951337 624.271016C607.228363 621.599164 574.351582 619.831914 531.469935 625.454982z" p-id="2240" fill="#C73C27"></path></svg>