<svg t="1550051446783" class="icon" viewBox="0 0 1024 1024" version="1.1" xmlns="http://www.w3.org/2000/svg" p-id="3255" height="200" width="200"><path d="M441.121792 669.63456c-42.529792 0-77.010944 34.729984-77.010944 77.575168 0 42.84416 34.480128 77.579264 77.010944 77.579264 42.53696 0 77.010944-34.735104 77.010944-77.579264-0.001024-42.845184-34.473984-77.575168-77.010944-77.575168z m0 122.829824c-24.807424 0-44.925952-20.260864-44.925952-45.253632 0-24.993792 20.117504-45.253632 44.925952-45.253632s44.924928 20.25984 44.924928 45.253632c-0.001024 24.991744-20.117504 45.253632-44.924928 45.253632zM192.796672 536.399872s13.632512-45.253632 0-90.507264c-13.633536-45.253632 52.145152-68.688896 64.177152-64.649216h57.757696s14.434304-2.423808-6.412288 19.395584c-20.861952 21.819392-21.462016 31.113216 0 38.787072 21.453824 7.678976 19.245056 12.93312 19.245056 12.93312s9.022464 20.404224 12.839936-12.93312c0 0 1.201152-10.502144-6.419456-12.929024-7.620608-2.423808 16.442368-27.677696 25.67168-32.324608 9.222144-4.646912 10.230784-41.61536-25.67168-51.716096-35.903488-10.102784-64.177152-19.395584-64.177152-19.395584s-7.41376-28.485632 6.419456-45.253632 32.09216 19.395584 32.09216 19.395584 14.2336 27.47392 32.084992-19.395584c0 0 14.641152-38.383616-12.839936-19.395584-27.47392 18.991104-37.70368-14.948352-44.924928-19.392512 0 0-47.126528-55.355392-57.750528 45.253632 0 0 2.00192 39.999488-64.177152 58.18368 0 0-34.494464 12.120064-44.924928 38.787072 0 0-59.359232-6.463488-102.682624 38.787072 0 0-8.822784 25.862144 19.259392 6.46656 0 0 50.530304-38.787072 96.256-12.929024 0 0 57.764864 11.317248 38.505472 129.298432 0 0-2.403328 45.253632 25.67168-6.46656z m69.610496 84.337664l-40.035328-11.501568 40.035328-11.502592-5.71904-34.512896 45.755392 11.503616 17.15712-34.509824 11.43808 34.509824h17.158144l-22.877184-74.773504-28.596224 51.767296-62.912512-17.255424 5.71904 51.767296-62.912512 23.006208 85.788672 28.756992v-17.255424z m737.045504 42.430464l-12.839936-6.465536s3.617792-90.911744 0-96.969728c-3.603456-6.063104-12.831744-6.46656-12.831744-6.46656h-25.672704s-87.8336-84.040704-96.254976-90.507264c-8.429568-6.46656-32.093184-6.46656-32.093184-6.46656H652.90752c-24.071168 0-60.566528 1.619968-89.849856 12.93312s-38.506496 25.858048-38.506496 25.858048-43.094016 72.96-89.849856 84.0448c-46.754816 11.080704-104.397824 15.929344-134.760448 38.787072-40.808448 32.1536-38.51264 71.11168-38.51264 71.11168-6.948864 5.926912-6.413312 32.325632-6.413312 32.325632 0.529408 40.338432 19.245056 45.253632 19.245056 45.253632h66.043904c-1.186816-6.288384-1.85856-12.758016-1.85856-19.395584 0-57.124864 45.969408-103.437312 102.675456-103.437312 56.707072 0 102.682624 46.312448 102.682624 103.437312 0 6.637568-0.678912 13.108224-1.865728 19.395584h200.81152v-19.395584c0-57.124864 45.974528-103.437312 102.6816-103.437312s102.67648 46.312448 102.67648 103.437312h32.09216c17.11616-26.938368 25.67168-64.64512 25.67168-64.64512 4.8128-17.78176-6.418432-19.397632-6.418432-19.397632z m-686.687232 6.46656h-19.244032s-3.21024-33.943552 44.924928-51.721216c0 0 12.624896-2.62656 19.245056 0 0 0.001024-2.202624 42.831872-44.925952 51.721216z m378.646528-109.902848l-186.113024 12.928s-4.34688-11.04384 12.832768-25.862144c0 0 52.94592-50.100224 70.590464-58.181632h102.689792v71.115776z m160.441344 0H723.49696v-71.115776h83.4304c22.991872 5.38624 51.33824 51.720192 51.33824 51.720192 6.953984 13.469696-6.412288 19.395584-6.412288 19.395584z m-9.631744 109.902848c-44.30336 0-80.22016 36.17792-80.22016 80.805888 0 44.632064 35.9168 80.81408 80.22016 80.81408 44.304384 0 80.221184-36.182016 80.221184-80.81408 0-44.626944-35.9168-80.805888-80.221184-80.805888z m0 122.829824c-23.041024 0-41.713664-18.813952-41.713664-42.022912 0-23.204864 18.67264-42.018816 41.713664-42.018816 23.042048 0 41.714688 18.813952 41.714688 42.018816 0.001024 23.20896-18.67264 42.022912-41.714688 42.022912z m-736.065536-365.96736c-23.03488 0-41.70752 18.812928-41.70752 42.022912 0 23.20896 18.67264 42.021888 41.70752 42.021888 23.041024 0 41.72288-18.812928 41.72288-42.021888 0-23.209984-18.680832-42.022912-41.72288-42.022912z" fill="#C73C27" p-id="3256"></path></svg>