<?xml version="1.0" standalone="no"?><!DOCTYPE svg PUBLIC "-//W3C//DTD SVG 1.1//EN" "http://www.w3.org/Graphics/SVG/1.1/DTD/svg11.dtd"><svg t="1541417377057" class="icon" style="" viewBox="0 0 1024 1024" version="1.1" xmlns="http://www.w3.org/2000/svg" p-id="21174" xmlns:xlink="http://www.w3.org/1999/xlink" width="48" height="48"><defs><style type="text/css"></style></defs><path d="M478.848 700.672a188.8 188.8 0 0 1-188.544-188.544V188.8A188.8 188.8 0 0 1 478.848 0.192 188.8 188.8 0 0 1 667.52 188.8v323.328a188.8 188.8 0 0 1-188.608 188.544z m0-646.592c-74.24 0-134.656 60.48-134.656 134.72v323.328c0 74.24 60.416 134.656 134.656 134.656 74.24 0 134.72-60.416 134.72-134.656V188.8c0-74.24-60.416-134.72-134.72-134.72z" p-id="21175"></path><path d="M829.12 512.128a26.944 26.944 0 0 0-53.888 0 296.704 296.704 0 0 1-296.32 296.32 296.704 296.704 0 0 1-296.384-296.32 26.944 26.944 0 0 0-53.888 0 350.72 350.72 0 0 0 323.264 349.184v108.8H371.2a26.944 26.944 0 0 0 0 53.888h215.488a26.944 26.944 0 0 0 0-53.888H505.792v-108.8a350.72 350.72 0 0 0 323.328-349.184z" p-id="21176"></path></svg>