<?xml version="1.0" standalone="no"?><!DOCTYPE svg PUBLIC "-//W3C//DTD SVG 1.1//EN" "http://www.w3.org/Graphics/SVG/1.1/DTD/svg11.dtd"><svg t="1541418579621" class="icon" style="" viewBox="0 0 1028 1024" version="1.1" xmlns="http://www.w3.org/2000/svg" p-id="29292" xmlns:xlink="http://www.w3.org/1999/xlink" width="48.1875" height="48"><defs><style type="text/css"></style></defs><path d="M512.010199 1024C229.237291 1024 0.010199 794.772908 0.010199 512S229.237291 0 512.010199 0s512 229.227092 512 512-229.227092 512-512 512z m0-960c-247.075697 0-448 200.924303-448 448C64.010199 759.075697 264.934502 960 512.010199 960 759.085896 960 960.010199 759.075697 960.010199 512c0-247.075697-200.924303-448-448-448z m-1.65737 769.40239h-3.952192c-195.442231 0-277.418327-176.318725-280.860557-183.968127-7.266932-16.191235-0.12749-35.059761 15.936255-42.326693 16.191235-7.266932 34.932271-0.12749 42.326693 15.808765 2.804781 5.992032 69.099602 146.358566 222.725099 146.358565h3.059761c163.314741-1.912351 228.717131-144.701195 229.482072-146.103585 7.139442-16.191235 26.007968-23.458167 42.199203-16.191235 16.063745 7.139442 23.458167 26.135458 16.191235 42.199203-3.314741 7.649402-83.250996 181.928287-287.107569 184.223107z m161.14741-353.52988c-35.314741 0-63.87251-28.557769-63.87251-63.87251 0-35.187251 28.557769-63.74502 63.87251-63.74502 35.314741 0 63.87251 28.557769 63.87251 63.74502s-28.557769 63.87251-63.87251 63.87251z m-320 0c-35.314741 0-63.87251-28.557769-63.87251-63.87251 0-35.187251 28.557769-63.74502 63.87251-63.74502 35.314741 0 63.87251 28.557769 63.87251 63.74502s-28.557769 63.87251-63.87251 63.87251z m0 0" p-id="29293"></path></svg>