<?xml version="1.0" standalone="no"?><!DOCTYPE svg PUBLIC "-//W3C//DTD SVG 1.1//EN" "http://www.w3.org/Graphics/SVG/1.1/DTD/svg11.dtd"><svg t="1541419497868" class="icon" style="" viewBox="0 0 1024 1024" version="1.1" xmlns="http://www.w3.org/2000/svg" p-id="30842" xmlns:xlink="http://www.w3.org/1999/xlink" width="48" height="48"><defs><style type="text/css"></style></defs><path d="M998.286 733.743c-13.206 13.765-28.93 20.65-47.167 20.65H74.845c-18.232 0-33.956-6.885-47.162-20.65-13.203-13.77-19.806-30.157-19.806-49.171v-491.68c0-19.67 6.603-36.383 19.806-50.152 13.206-13.765 28.93-20.65 47.162-20.65h876.274c18.867 0 34.587 6.885 47.167 20.65 12.573 13.769 19.176 30.481 19.806 50.152v491.68c0 19.014-6.603 35.4-19.806 49.171z m-33.302-558.548H60.98v531.05l904.005-13.895V175.195z m-813.733 97.354h49.995c5.655 0 8.485 2.95 8.485 8.856v35.403c0 5.906-2.83 8.856-8.485 8.856H151.25c-5.662 0-8.492-2.95-8.492-8.856v-35.403c0-5.906 2.83-8.856 8.492-8.856z m0 132.768h117.907c5.656 0 8.488 2.944 8.488 8.842v44.262c0 5.894-2.832 8.844-8.488 8.844H151.251c-5.662 0-8.492-2.95-8.492-8.844V414.16c0-5.898 2.83-8.842 8.492-8.842z m0 141.613h49.995c5.655 0 8.485 2.95 8.485 8.848v44.256c0 5.9-2.83 8.85-8.485 8.85H151.25c-5.662 0-8.492-2.95-8.492-8.85v-44.256c0-5.898 2.83-8.848 8.492-8.848z m134.882 0h454.642c5.664 0 8.494 2.95 8.494 8.848v44.256c0 5.9-2.83 8.85-8.494 8.85H286.133c-5.655 0-8.487-2.95-8.487-8.85v-44.256c0-5.898 2.832-8.848 8.487-8.848z m463.13-132.771c0-5.898 2.832-8.842 8.487-8.842h58.488V281.405c0-5.906 2.83-8.856 8.486-8.856h50.938c5.657 0 8.49 2.95 8.49 8.856v177.016c0 5.894-2.833 8.844-8.49 8.844H757.75c-5.655 0-8.487-2.95-8.487-8.844V414.16z m75.46 132.771h50.939c5.657 0 8.49 2.95 8.49 8.848v44.256c0 5.9-2.833 8.85-8.49 8.85h-50.938c-5.656 0-8.486-2.95-8.486-8.85v-44.256c0-5.898 2.824-8.848 8.486-8.848z m-83.948-221.266h-50.932c-5.657 0-8.487-2.95-8.487-8.856v-35.403c0-5.906 2.826-8.856 8.487-8.856h50.932c5.664 0 8.494 2.95 8.494 8.856v35.403c0 5.906-2.83 8.856-8.494 8.856z m-59.42 132.757c0 5.894-2.835 8.844-8.492 8.844H622.87c-5.656 0-8.488-2.95-8.488-8.844V414.16c0-5.898 2.832-8.842 8.488-8.842h49.993c5.657 0 8.493 2.944 8.493 8.842v44.262z m-75.46-132.757h-50.932c-5.664 0-8.496-2.95-8.496-8.856v-35.403c0-5.906 2.832-8.856 8.496-8.856h50.932c5.661 0 8.487 2.95 8.487 8.856v35.403c0 5.906-2.826 8.856-8.487 8.856zM546.467 458.42c0 5.894-2.514 8.844-7.548 8.844h-50.932c-5.655 0-8.485-2.95-8.485-8.844V414.16c0-5.898 2.83-8.842 8.485-8.842h50.932c5.034 0 7.548 2.944 7.548 8.842v44.262z m-75.46-132.757h-49.991c-5.658 0-8.484-2.95-8.484-8.856v-35.403c0-5.906 2.826-8.856 8.484-8.856h49.99c5.664 0 8.496 2.95 8.496 8.856v35.403c0 5.906-2.832 8.856-8.495 8.856zM412.532 458.42c0 5.894-2.836 8.844-8.491 8.844h-50.934c-5.662 0-8.494-2.95-8.494-8.844V414.16c0-5.898 2.832-8.842 8.494-8.842h50.934c5.655 0 8.491 2.944 8.491 8.842v44.262z m-76.406-132.757h-49.993c-5.655 0-8.487-2.95-8.487-8.856v-35.403c0-5.906 2.832-8.856 8.487-8.856h49.993c5.658 0 8.487 2.95 8.487 8.856v35.403c0 5.906-2.83 8.856-8.487 8.856zM505.793 899.94l-96.599-111.633h193.198L505.793 899.94z" p-id="30843" fill="#333333"></path></svg>